<svg width="36" height="36" viewBox="0 0 36 36" fill="none" xmlns="http://www.w3.org/2000/svg">
<path fill-rule="evenodd" clip-rule="evenodd" d="M25.1001 25.16C25.6901 24.26 25.9101 23.8 26.3601 22.79C23.0401 21.53 22.5101 16.8 25.7901 14.99C24.7901 13.73 23.3801 13 22.0501 13C21.0901 13 20.4301 13.25 19.8401 13.48C19.3401 13.67 18.8901 13.84 18.3301 13.84C17.7301 13.84 17.2001 13.65 16.6401 13.45C16.0301 13.23 15.3901 13 14.5901 13C13.1001 13 11.5101 13.91 10.5001 15.47C9.08007 17.67 9.33007 21.79 11.6201 25.31C12.4401 26.57 13.5401 27.98 14.9701 28C15.5701 28.01 15.9601 27.83 16.3901 27.64C16.8801 27.42 17.4101 27.18 18.3401 27.18C19.2701 27.17 19.7901 27.42 20.2801 27.64C20.7001 27.83 21.0801 28.01 21.6701 28C23.1201 27.98 24.2801 26.42 25.1001 25.16Z" fill="#F5EEFF"/>
<path fill-rule="evenodd" clip-rule="evenodd" d="M21.8399 8C21.9999 9.1 21.5499 10.19 20.9599 10.95C20.3299 11.77 19.2299 12.41 18.1699 12.37C17.9799 11.31 18.4699 10.22 19.0699 9.48999C19.7399 8.68999 20.8699 8.07 21.8399 8Z" fill="#F5EEFF"/>
</svg>
