<svg width="36" height="36" viewBox="0 0 36 36" fill="none" xmlns="http://www.w3.org/2000/svg">
<path d="M21 28.75H15C9.57 28.75 7.25 26.43 7.25 21V15C7.25 9.57 9.57 7.25 15 7.25H21C26.43 7.25 28.75 9.57 28.75 15V21C28.75 26.43 26.43 28.75 21 28.75ZM15 8.75C10.39 8.75 8.75 10.39 8.75 15V21C8.75 25.61 10.39 27.25 15 27.25H21C25.61 27.25 27.25 25.61 27.25 21V15C27.25 10.39 25.61 8.75 21 8.75H15Z" fill="#F5EEFF"/>
<path d="M18 22.25C15.66 22.25 13.75 20.34 13.75 18C13.75 15.66 15.66 13.75 18 13.75C20.34 13.75 22.25 15.66 22.25 18C22.25 20.34 20.34 22.25 18 22.25ZM18 15.25C16.48 15.25 15.25 16.48 15.25 18C15.25 19.52 16.48 20.75 18 20.75C19.52 20.75 20.75 19.52 20.75 18C20.75 16.48 19.52 15.25 18 15.25Z" fill="#F5EEFF"/>
<path d="M23 13.4999C22.87 13.4999 22.74 13.4699 22.62 13.4199C22.5 13.3699 22.39 13.2999 22.29 13.2099C22.2 13.1099 22.12 12.9999 22.07 12.8799C22.02 12.7599 22 12.6299 22 12.4999C22 12.3699 22.02 12.2399 22.07 12.1199C22.13 11.9899 22.2 11.8899 22.29 11.7899C22.34 11.7499 22.39 11.6999 22.44 11.6699C22.5 11.6299 22.56 11.5999 22.62 11.5799C22.68 11.5499 22.74 11.5299 22.81 11.5199C23.13 11.4499 23.47 11.5599 23.71 11.7899C23.8 11.8899 23.87 11.9899 23.92 12.1199C23.97 12.2399 24 12.3699 24 12.4999C24 12.6299 23.97 12.7599 23.92 12.8799C23.87 12.9999 23.8 13.1099 23.71 13.2099C23.61 13.2999 23.5 13.3699 23.38 13.4199C23.26 13.4699 23.13 13.4999 23 13.4999Z" fill="#F5EEFF"/>
</svg>
