<svg width="36" height="36" viewBox="0 0 36 36" fill="none" xmlns="http://www.w3.org/2000/svg">
<path d="M25.875 8.625H10.125C9.72718 8.625 9.34564 8.78304 9.06434 9.06434C8.78304 9.34564 8.625 9.72718 8.625 10.125V25.875C8.625 26.2728 8.78304 26.6544 9.06434 26.9357C9.34564 27.217 9.72718 27.375 10.125 27.375H25.875C26.2728 27.375 26.6544 27.217 26.9357 26.9357C27.217 26.6544 27.375 26.2728 27.375 25.875V10.125C27.375 9.72718 27.217 9.34564 26.9357 9.06434C26.6544 8.78304 26.2728 8.625 25.875 8.625ZM15 22.5C15 22.6989 14.921 22.8897 14.7803 23.0303C14.6397 23.171 14.4489 23.25 14.25 23.25C14.0511 23.25 13.8603 23.171 13.7197 23.0303C13.579 22.8897 13.5 22.6989 13.5 22.5V16.5C13.5 16.3011 13.579 16.1103 13.7197 15.9697C13.8603 15.829 14.0511 15.75 14.25 15.75C14.4489 15.75 14.6397 15.829 14.7803 15.9697C14.921 16.1103 15 16.3011 15 16.5V22.5ZM14.25 14.625C14.0275 14.625 13.81 14.559 13.625 14.4354C13.44 14.3118 13.2958 14.1361 13.2106 13.9305C13.1255 13.725 13.1032 13.4988 13.1466 13.2805C13.19 13.0623 13.2972 12.8618 13.4545 12.7045C13.6118 12.5472 13.8123 12.44 14.0305 12.3966C14.2488 12.3532 14.475 12.3755 14.6805 12.4606C14.8861 12.5458 15.0618 12.69 15.1854 12.875C15.309 13.06 15.375 13.2775 15.375 13.5C15.375 13.7984 15.2565 14.0845 15.0455 14.2955C14.8345 14.5065 14.5484 14.625 14.25 14.625ZM23.25 22.5C23.25 22.6989 23.171 22.8897 23.0303 23.0303C22.8897 23.171 22.6989 23.25 22.5 23.25C22.3011 23.25 22.1103 23.171 21.9697 23.0303C21.829 22.8897 21.75 22.6989 21.75 22.5V19.125C21.75 18.6277 21.5525 18.1508 21.2008 17.7992C20.8492 17.4475 20.3723 17.25 19.875 17.25C19.3777 17.25 18.9008 17.4475 18.5492 17.7992C18.1975 18.1508 18 18.6277 18 19.125V22.5C18 22.6989 17.921 22.8897 17.7803 23.0303C17.6397 23.171 17.4489 23.25 17.25 23.25C17.0511 23.25 16.8603 23.171 16.7197 23.0303C16.579 22.8897 16.5 22.6989 16.5 22.5V16.5C16.4995 16.3154 16.567 16.1371 16.6898 15.9993C16.8125 15.8614 16.9817 15.7736 17.1651 15.7527C17.3485 15.7318 17.5331 15.7793 17.6837 15.886C17.8343 15.9928 17.9402 16.1513 17.9813 16.3312C18.4887 15.9872 19.0803 15.788 19.6925 15.7548C20.3047 15.7217 20.9144 15.8559 21.4561 16.1431C21.9977 16.4303 22.4509 16.8597 22.767 17.385C23.083 17.9104 23.25 18.5119 23.25 19.125V22.5Z" fill="#F5EEFF"/>
</svg>
