<svg width="36" height="36" viewBox="0 0 36 36" fill="none" xmlns="http://www.w3.org/2000/svg">
<path d="M26.9622 16.7062L11.2403 7.69687C11.0086 7.56499 10.7463 7.49643 10.4797 7.49808C10.2131 7.49972 9.95164 7.57152 9.72158 7.70624C9.49617 7.83638 9.30903 8.02362 9.17901 8.2491C9.04899 8.47458 8.98068 8.73034 8.98096 8.99062V27.0094C8.98343 27.4056 9.14256 27.7847 9.4236 28.064C9.70464 28.3433 10.0848 28.5 10.481 28.5C10.7466 28.4991 11.0077 28.4314 11.2403 28.3031L26.9622 19.2937C27.1951 19.1674 27.3896 18.9805 27.5251 18.7528C27.6607 18.5251 27.7322 18.265 27.7322 18C27.7322 17.735 27.6607 17.4749 27.5251 17.2472C27.3896 17.0195 27.1951 16.8326 26.9622 16.7062ZM19.4997 19.0594L21.2716 20.8312L13.0028 25.5562L19.4997 19.0594ZM13.0028 10.4344L21.2716 15.1687L19.4997 16.9406L13.0028 10.4344ZM22.6122 20.0531L20.5591 18L22.6122 15.9469L26.2122 18L22.6122 20.0531Z" fill="#F5EEFF"/>
</svg>
