<svg width="36" height="36" viewBox="0 0 36 36" fill="none" xmlns="http://www.w3.org/2000/svg">
<path d="M27.9656 12.5438C27.8795 12.1982 27.7108 11.8786 27.474 11.6125C27.2373 11.3463 26.9395 11.1416 26.6063 11.0157C23.4 9.77822 18.2812 9.7876 18 9.7876C17.7188 9.7876 12.6 9.77822 9.39375 11.0157C9.06051 11.1416 8.76275 11.3463 8.52599 11.6125C8.28923 11.8786 8.12054 12.1982 8.03438 12.5438C7.79063 13.472 7.5 15.1782 7.5 18.0001C7.5 20.822 7.79063 22.5282 8.03438 23.4563C8.12054 23.802 8.28923 24.1216 8.52599 24.3877C8.76275 24.6539 9.06051 24.8586 9.39375 24.9845C12.4688 26.1751 17.2875 26.2126 17.9344 26.2126H18.0656C18.7125 26.2126 23.5312 26.1751 26.6063 24.9845C26.9395 24.8586 27.2373 24.6539 27.474 24.3877C27.7108 24.1216 27.8795 23.802 27.9656 23.4563C28.2094 22.5282 28.5 20.822 28.5 18.0001C28.5 15.1782 28.2094 13.472 27.9656 12.5438ZM21.2062 18.3095L16.7062 21.3095C16.6466 21.3534 16.5741 21.3765 16.5 21.3751C16.4379 21.3728 16.3771 21.3568 16.3219 21.3282C16.262 21.2971 16.2118 21.2499 16.1771 21.192C16.1423 21.1341 16.1243 21.0676 16.125 21.0001V15.0001C16.1243 14.9326 16.1423 14.8661 16.1771 14.8082C16.2118 14.7503 16.262 14.7031 16.3219 14.672C16.3817 14.6401 16.449 14.625 16.5167 14.6283C16.5843 14.6316 16.6499 14.6532 16.7062 14.6907L21.2062 17.6907C21.2585 17.7237 21.3016 17.7693 21.3315 17.8234C21.3614 17.8775 21.377 17.9383 21.377 18.0001C21.377 18.0619 21.3614 18.1227 21.3315 18.1768C21.3016 18.2309 21.2585 18.2765 21.2062 18.3095Z" fill="#F5EEFF"/>
</svg>
